<svg xmlns="http://www.w3.org/2000/svg" xmlns:xlink="http://www.w3.org/1999/xlink" viewBox="0,0,256,256" width="30px" height="30px" fill-rule="nonzero"><g fill="#f9f9f9" fill-rule="nonzero" stroke="none" stroke-width="1" stroke-linecap="butt" stroke-linejoin="miter" stroke-miterlimit="10" stroke-dasharray="" stroke-dashoffset="0" font-family="none" font-weight="none" font-size="none" text-anchor="none" style="mix-blend-mode: normal"><g transform="scale(9.84615,9.84615)"><path d="M23.28125,11l-13.28125,-1v-3.14844c0,-0.32812 -0.16016,-0.57422 -0.48047,-0.82031c-0.32031,-0.08203 -0.64062,-0.08203 -0.87891,0.08203c-3.28125,2.29688 -6.40234,6.14453 -6.48047,6.30859c-0.07812,0.15625 -0.15234,0.39063 -0.15625,0.55469c0,0.00391 -0.00391,0.01172 -0.00391,0.01563c0,0.16406 0.07813,0.41016 0.16016,0.49219c0.07813,0.16406 3.12109,4.02344 6.48047,6.32031c0.32031,0.16406 0.64063,0.24609 0.87891,0.08203c0.32031,-0.16406 0.48047,-0.41016 0.48047,-0.73828v-3.14844l13.28125,-1c0.39844,-0.32031 0.71875,-1.125 0.71875,-2.00781c0,-0.79687 -0.23828,-1.67187 -0.71875,-1.99219z"></path></g></g></svg>